<?xml version="1.0" encoding="iso-8859-1"?>
<!-- Uploaded to: SVG Repo, www.svgrepo.com, Generator: SVG Repo Mixer Tools -->
<svg version="1.1" id="Layer_1" xmlns="http://www.w3.org/2000/svg" xmlns:xlink="http://www.w3.org/1999/xlink" 
	 viewBox="0 0 512 512" xml:space="preserve">
<g>
	<rect x="247.83" y="95.319" style="fill:#A2B1B7;" width="16.34" height="43.574"/>
	<path style="fill:#A2B1B7;" d="M256,128l187.915,267.245l43.574-3.075v-32.681C487.489,231.642,383.849,128,256,128z"/>
</g>
<path style="fill:#C4D3D9;" d="M256,128C128.151,128,24.511,231.642,24.511,359.489v32.681L256,408.511l187.915-13.265v-35.756
	C443.915,231.642,359.782,128,256,128z"/>
<g>
	<circle style="fill:#A2B1B7;" cx="71.342" cy="310.468" r="8.17"/>
	<circle style="fill:#A2B1B7;" cx="104.023" cy="326.809" r="8.17"/>
</g>
<polygon style="fill:#748993;" points="454.809,392.17 443.915,408.511 443.915,424.851 476.596,424.851 487.489,392.17 "/>
<polygon style="fill:#A2B1B7;" points="24.511,392.17 35.404,424.851 443.915,424.851 454.809,392.17 "/>
<g>
	<path style="fill:#748993;" d="M503.83,400.34H8.17c-4.512,0-8.17-3.657-8.17-8.17c0-4.513,3.658-8.17,8.17-8.17h495.66
		c4.512,0,8.17,3.657,8.17,8.17C512,396.683,508.342,400.34,503.83,400.34z"/>
	<path style="fill:#748993;" d="M272.34,103.489H239.66c-4.512,0-8.17-3.657-8.17-8.17s3.658-8.17,8.17-8.17h32.681
		c4.512,0,8.17,3.657,8.17,8.17S276.853,103.489,272.34,103.489z"/>
</g>
</svg>